<svg xmlns="http://www.w3.org/2000/svg" version="1.1" xmlns:xlink="http://www.w3.org/1999/xlink" xmlns:svgjs="http://svgjs.dev/svgjs" width="100%" height="100%" viewBox="0 0 1000 600"><rect width="1000" height="600" x="0" y="0" fill="#ee4e34"/><g><circle r="166.66666666666666" cx="325.14345804850257" cy="347.3657134328087" fill="#fcedda" transform="matrix(0.7887588512312738,0,0,0.7887588512312738,0,26.012212799284598)"/><path d="M283.28446971146735 422.365724094805L263.8476708781525 422.365724094805L314.4087554249454 272.3657226409716L335.87816067220166 272.3657226409716L386.43924521899453 422.365724094805L366.30373793088734 422.365724094805L340.229208777045 338.4571905692856Q336.35455280046915 325.8804383830231 332.5751752495469 313.39896462241404Q328.7957976986245 300.9492503370228 325.36577437509834 287.89610602249275L325.36577437509834 287.89610602249275L324.4447495937811 287.89610602249275Q320.79240994373015 300.9492503370228 317.1400702936792 313.39896462241404Q313.4877306436282 325.8804383830231 309.5813151918345 338.4571905692856L309.5813151918345 338.4571905692856L283.28446971146735 422.365724094805ZM359.22137495731016 376.63207978112297L290.3985921602623 376.63207978112297L290.3985921602623 361.3240127261267L359.22137495731016 361.3240127261267L359.22137495731016 376.63207978112297Z " fill="#ee4e34" transform="matrix(0.7887588512312738,0,0,0.7887588512312738,0,26.012212799284598)"/><path d="M594.5802537080494 422.365724094805L575.1434548747345 422.365724094805L625.7045394215274 272.3657226409716L647.1739446687836 272.3657226409716L697.7350292155766 422.365724094805L677.5995219274694 422.365724094805L651.524992773627 338.4571905692856Q647.6503367970512 325.8804383830231 643.8709592461289 313.39896462241404Q640.0915816952065 300.9492503370228 636.6615583716804 287.89610602249275L636.6615583716804 287.89610602249275L635.7405335903632 287.89610602249275Q632.0881939403122 300.9492503370228 628.4358542902612 313.39896462241404Q624.7835146402101 325.8804383830231 620.8770991884164 338.4571905692856L620.8770991884164 338.4571905692856L594.5802537080494 422.365724094805ZM670.5171589538921 376.63207978112297L601.6943761568443 376.63207978112297L601.6943761568443 361.3240127261267L670.5171589538921 361.3240127261267L670.5171589538921 376.63207978112297ZM746.8986968527847 422.365724094805L727.9065306725195 422.365724094805L727.9065306725195 272.3657226409716L774.5611997675187 272.3657226409716Q789.8692668225151 272.3657226409716 801.6520321283317 276.36741651841874Q813.4347974341484 280.36911039586596 820.1678061803294 289.6111176842559Q826.9325744017282 298.88488444786356 826.9325744017282 314.4470273046026L826.9325744017282 314.4470273046026Q826.9325744017282 329.53277803307407 820.1678061803294 339.346455875385Q813.4347974341484 349.19189319291377 801.6520321283317 354.11461185167815Q789.8692668225151 359.03733051044253 774.5611997675187 359.03733051044253L774.5611997675187 359.03733051044253L746.8986968527847 359.03733051044253L746.8986968527847 422.365724094805ZM746.8986968527847 287.6737896959679L746.8986968527847 343.47518765370353L771.7981254235671 343.47518765370353Q789.4246341694653 343.47518765370353 798.6666414578553 336.26578677925505Q807.940408221463 329.0563859048066 807.940408221463 314.4470273046026L807.940408221463 314.4470273046026Q807.940408221463 299.80590922918077 798.6666414578553 293.7398494625744Q789.4246341694653 287.6737896959679 771.7981254235671 287.6737896959679L771.7981254235671 287.6737896959679L746.8986968527847 287.6737896959679ZM809.7824577840975 422.365724094805L770.654784315725 353.765257624282L785.7722945194143 343.69750398022836L831.5059388330964 422.365724094805L809.7824577840975 422.365724094805ZM900.1064053036193 422.365724094805L862.122072943089 422.365724094805L862.122072943089 272.3657226409716L899.1853805223022 272.3657226409716Q921.8298863526184 272.3657226409716 937.264991308486 280.9407809497869Q952.7000962643538 289.51583925860234 960.703484019248 306.18956374796556Q968.7068717741424 322.8950477125466 968.7068717741424 346.68289465070484L968.7068717741424 346.68289465070484Q968.7068717741424 370.6930579153879 960.7987624449015 387.6208582064938Q952.9224125908786 404.5168990223819 937.5825860606644 413.44131155859344Q922.274519005668 422.365724094805 900.1064053036193 422.365724094805L900.1064053036193 422.365724094805ZM881.1142391233543 287.89610602249275L881.1142391233543 406.803581238066L897.8197230879352 406.803581238066Q914.9698397055661 406.803581238066 926.2762128831152 399.62593983883534Q937.5825860606644 392.41653896438686 943.2992915998746 379.0457998976784Q949.0159971390849 365.64330135575216 949.0159971390849 346.68289465070484L949.0159971390849 346.68289465070484Q949.0159971390849 327.9130447969645 943.2992915998746 314.66934363112745Q937.5825860606644 301.3938829900725 926.2762128831152 294.66087424389156Q914.9698397055661 287.89610602249275 897.8197230879352 287.89610602249275L897.8197230879352 287.89610602249275L881.1142391233543 287.89610602249275ZM1006.1830525311874 422.365724094805L986.7462536978726 422.365724094805L1037.3073382446655 272.3657226409716L1058.7767434919217 272.3657226409716L1109.3378280387146 422.365724094805L1089.2023207506072 422.365724094805L1063.1277915967648 338.4571905692856Q1059.2531356201891 325.8804383830231 1055.4737580692668 313.39896462241404Q1051.6943805183446 300.9492503370228 1048.2643571948183 287.89610602249275L1048.2643571948183 287.89610602249275L1047.3433324135012 287.89610602249275Q1043.6909927634501 300.9492503370228 1040.0386531133993 313.39896462241404Q1036.3863134633482 325.8804383830231 1032.4798980115545 338.4571905692856L1032.4798980115545 338.4571905692856L1006.1830525311874 422.365724094805ZM1082.1199577770303 376.63207978112297L1013.2971749799823 376.63207978112297L1013.2971749799823 361.3240127261267L1082.1199577770303 361.3240127261267L1082.1199577770303 376.63207978112297Z " fill="#fcedda" transform="matrix(0.7887588512312738,0,0,0.7887588512312738,0,26.012212799284598)"/></g></svg>